<?xml version="1.0" encoding="utf-8"?>
<!-- Generator: Adobe Illustrator 16.0.3, SVG Export Plug-In . SVG Version: 6.00 Build 0)  -->
<!DOCTYPE svg PUBLIC "-//W3C//DTD SVG 1.1//EN" "http://www.w3.org/Graphics/SVG/1.1/DTD/svg11.dtd">
<svg version="1.1" id="Шар_1" xmlns="http://www.w3.org/2000/svg" xmlns:xlink="http://www.w3.org/1999/xlink" x="0px" y="0px"
	 width="458.356px" height="458.352px" viewBox="0 0 458.356 458.352" enable-background="new 0 0 458.356 458.352"
	 xml:space="preserve">
<g>
	<defs>
		<path id="SVGID_1_" d="M0,229.177c0,126.564,102.602,229.175,229.175,229.175c126.563,0,229.181-102.61,229.181-229.175
			C458.356,102.601,355.738,0,229.175,0C102.602,0,0,102.601,0,229.177"/>
	</defs>
	<clipPath id="SVGID_2_">
		<use xlink:href="#SVGID_1_"  overflow="visible"/>
	</clipPath>
	<rect x="-121.634" y="391.528" clip-path="url(#SVGID_2_)" fill="#FFFFFF" width="793.238" height="35.596"/>
	<rect x="-121.634" y="320.355" clip-path="url(#SVGID_2_)" fill="#FFFFFF" width="793.238" height="35.594"/>
	<rect x="-121.634" y="249.175" clip-path="url(#SVGID_2_)" fill="#FFFFFF" width="793.238" height="35.575"/>
	<rect x="-121.634" y="177.975" clip-path="url(#SVGID_2_)" fill="#FFFFFF" width="793.238" height="35.576"/>
	<rect x="-121.634" y="106.769" clip-path="url(#SVGID_2_)" fill="#FFFFFF" width="793.238" height="35.605"/>
	<rect x="-121.634" y="35.602" clip-path="url(#SVGID_2_)" fill="#FFFFFF" width="793.238" height="35.573"/>
	<rect x="-121.634" y="427.124" clip-path="url(#SVGID_2_)" fill="#E0444F" width="793.238" height="35.605"/>
	<rect x="-121.634" y="355.949" clip-path="url(#SVGID_2_)" fill="#E0444F" width="793.238" height="35.578"/>
	<rect x="-121.634" y="284.75" clip-path="url(#SVGID_2_)" fill="#E0444F" width="793.238" height="35.604"/>
	<rect x="-121.634" y="213.573" clip-path="url(#SVGID_2_)" fill="#E0444F" width="793.238" height="35.603"/>
	<rect x="-121.634" y="142.374" clip-path="url(#SVGID_2_)" fill="#E0444F" width="793.238" height="35.602"/>
	<rect x="-121.634" y="71.174" clip-path="url(#SVGID_2_)" fill="#E0444F" width="793.238" height="35.594"/>
	<rect x="-121.634" clip-path="url(#SVGID_2_)" fill="#E0444F" width="793.238" height="35.602"/>
	<rect x="-121.634" clip-path="url(#SVGID_2_)" fill="#3B51A3" width="362.161" height="249.175"/>
</g>
</svg>
