<?xml version="1.0" encoding="utf-8"?>
<!-- Generator: Adobe Illustrator 16.0.3, SVG Export Plug-In . SVG Version: 6.00 Build 0)  -->
<!DOCTYPE svg PUBLIC "-//W3C//DTD SVG 1.1//EN" "http://www.w3.org/Graphics/SVG/1.1/DTD/svg11.dtd">
<svg version="1.1" id="Шар_1" xmlns="http://www.w3.org/2000/svg" xmlns:xlink="http://www.w3.org/1999/xlink" x="0px" y="0px"
	 width="408.309px" height="378.07px" viewBox="0 0 408.309 378.07" enable-background="new 0 0 408.309 378.07"
	 xml:space="preserve">
<g>
	<defs>
		<path id="SVGID_1_" d="M14.939,189.039c0,104.394,84.625,189.031,189.035,189.031c104.4,0,189.034-84.638,189.034-189.031
			C393.008,84.637,308.375,0,203.974,0C99.564,0,14.939,84.637,14.939,189.039"/>
	</defs>
	<clipPath id="SVGID_2_">
		<use xlink:href="#SVGID_1_"  overflow="visible"/>
	</clipPath>
	<rect x="-2.77" y="-11.289" clip-path="url(#SVGID_2_)" fill="#5BBC5F" width="405.658" height="116.994"/>
	<rect x="-6.729" y="290.776" clip-path="url(#SVGID_2_)" fill="#5BBC5F" width="405.658" height="117.008"/>
</g>
<g>
	<defs>
		<path id="SVGID_3_" d="M56.064,71.307c-25.738,32.298-41.125,73.222-41.125,117.732c0,45.774,16.268,87.746,43.342,120.454
			h291.383c27.075-32.708,43.345-74.68,43.345-120.454c0-44.51-15.389-85.434-41.127-117.732H56.064z"/>
	</defs>
	<clipPath id="SVGID_4_">
		<use xlink:href="#SVGID_3_"  overflow="visible"/>
	</clipPath>
	<rect y="71.307" clip-path="url(#SVGID_4_)" fill="#5BBC5F" width="408.309" height="238.186"/>
	<polygon clip-path="url(#SVGID_4_)" fill="#F2CC53" points="62.947,190.392 204.142,280.569 345.354,190.392 204.142,100.217 	"/>
</g>
<g>
	<defs>
		<path id="SVGID_5_" d="M56.064,71.307c-25.738,32.299-41.125,73.223-41.125,117.732c0,45.774,16.268,87.746,43.342,120.454
			h291.383c27.074-32.708,43.345-74.68,43.345-120.454c0-44.509-15.389-85.433-41.128-117.732H56.064z"/>
	</defs>
	<clipPath id="SVGID_6_">
		<use xlink:href="#SVGID_5_"  overflow="visible"/>
	</clipPath>
	<path clip-path="url(#SVGID_6_)" fill="#3D63A0" d="M263.7,190.392c0,32.883-26.676,59.549-59.559,59.549
		c-32.861,0-59.531-26.666-59.531-59.549c0-32.856,26.67-59.541,59.531-59.541C237.024,130.851,263.7,157.535,263.7,190.392"/>
	<path clip-path="url(#SVGID_6_)" fill="#FFFFFF" d="M170.132,164.874c-6.946,0-13.768,0.504-20.462,1.441
		c-1.277,2.911-2.346,5.969-3.173,9.105c7.684-1.321,15.562-2.046,23.635-2.046c34.924,0,66.76,13.181,90.863,34.788
		c0.95-3.031,1.661-6.19,2.117-9.412C237.97,177.617,205.525,164.874,170.132,164.874"/>
</g>
</svg>
