<?xml version="1.0" encoding="utf-8"?>
<!-- Generator: Adobe Illustrator 21.0.0, SVG Export Plug-In . SVG Version: 6.00 Build 0)  -->
<svg version="1.1" id="Layer_1" xmlns="http://www.w3.org/2000/svg" xmlns:xlink="http://www.w3.org/1999/xlink" x="0px" y="0px"
	 width="3000px" height="2000px" viewBox="0 0 3000 2000" style="enable-background:new 0 0 3000 2000;" xml:space="preserve">
<style type="text/css">
	.st0{fill:#9EE2D5;}
	.st1{fill:#B3E8DE;}
	.st2{fill:#80BCB0;}
	.st3{fill:#FFFFE7;}
	.st4{fill:#EDECD6;}
	.st5{fill:#D59E4C;}
	.st6{fill:#CABFA3;}
	.st7{fill:#968E7C;}
	.st8{fill:#FFCE7F;}
	.st9{fill:#DB7A49;}
	.st10{fill:#A04935;}
	.st11{fill:#AF5B41;}
	.st12{fill:#FD965B;}
	.st13{fill:#2B6668;}
	.st14{fill:#335352;}
	.st15{fill:#8D978F;}
	.st16{fill:#7E8780;}
	.st17{fill:#914C3A;}
	.st18{fill:#89968C;}
	.st19{fill:#97A098;}
	.st20{fill:#717F74;}
	.st21{fill:#B6BAB6;}
	.st22{fill:#9BA59D;}
	.st23{fill:#A3AFA5;}
	.st24{fill:#8F9991;}
	.st25{fill:#A07457;}
	.st26{fill:#B78B68;}
	.st27{fill:#7D966C;}
	.st28{fill:#667C55;}
	.st29{fill:#CEF4EC;}
	.st30{fill:#609389;}
	.st31{fill:#AAAFAB;}
	.st32{fill:#3F8989;}
	.st33{fill:#DCF9F2;}
</style>
<g>
	<rect x="-0.9" class="st0" width="3000" height="2000"/>
	<g>
		<g>
			<polygon class="st1" points="424.3,1056.7 2521.6,1056.7 2573.9,982.1 476.6,982.1 			"/>
			<polygon class="st1" points="424.3,1172.6 2521.6,1172.6 2573.9,1098 476.6,1098 			"/>
			<polygon class="st1" points="424.3,1288.5 2521.6,1288.5 2573.9,1213.9 476.6,1213.9 			"/>
			<polygon class="st1" points="424.3,1411 2521.6,1411 2573.9,1336.4 476.6,1336.4 			"/>
			<rect x="2428.2" y="378.3" class="st1" width="15.3" height="1220.4"/>
			<ellipse class="st1" cx="2435.8" cy="1634.3" rx="21.6" ry="58.3"/>
		</g>
		<g>
			<polygon class="st1" points="424.3,452.9 2521.6,452.9 2573.9,378.3 476.6,378.3 			"/>
			<polygon class="st1" points="424.3,568.8 2521.6,568.8 2573.9,494.2 476.6,494.2 			"/>
			<polygon class="st1" points="424.3,684.7 2521.6,684.7 2573.9,610.1 476.6,610.1 			"/>
			<polygon class="st1" points="424.3,807.2 2521.6,807.2 2573.9,732.6 476.6,732.6 			"/>
		</g>
	</g>
	<g>
		<g>
			<path class="st2" d="M1313.7,915.9l-35.3-3.1c-0.1-0.4-0.2-0.8-0.3-1.1l29-20.4c2.2-1.5,2.8-4.4,1.5-6.7l-7.2-12.6l-7.2-12.6
				c-1.3-2.3-4.1-3.2-6.5-2.1l-32.2,15c-0.3-0.3-0.6-0.6-0.8-0.8l15-32.2c1.1-2.4,0.2-5.2-2.1-6.5l-12.6-7.2l-12.6-7.2
				c-2.3-1.3-5.2-0.7-6.7,1.5l-20.4,29c-0.4-0.1-0.8-0.2-1.1-0.3l-3.1-35.3c-0.2-2.6-2.4-4.6-5-4.6h-14.5H1177c-2.6,0-4.8,2-5,4.6
				l-3.1,35.3c-0.4,0.1-0.8,0.2-1.1,0.3l-20.4-29c-1.5-2.2-4.4-2.8-6.7-1.5l-12.6,7.2l-12.6,7.2c-2.3,1.3-3.2,4.1-2.1,6.5l15,32.2
				c-0.3,0.3-0.6,0.6-0.8,0.8l-32.2-15c-2.4-1.1-5.2-0.2-6.5,2.1l-7.2,12.6l-7.2,12.6c-1.3,2.3-0.7,5.2,1.5,6.7l29,20.4
				c-0.1,0.4-0.2,0.8-0.3,1.1l-35.3,3.1c-2.6,0.2-4.6,2.4-4.6,5v14.5v14.5c0,2.6,2,4.8,4.6,5l35.3,3.1c0.1,0.4,0.2,0.8,0.3,1.1
				l-29,20.4c-2.1,1.5-2.8,4.4-1.5,6.7l7.2,12.6l7.2,12.6c1.3,2.3,4.1,3.2,6.5,2.1l32.2-15c0.3,0.3,0.6,0.6,0.8,0.8l-15,32.2
				c-1.1,2.4-0.2,5.2,2.1,6.5l12.6,7.2l12.6,7.2c2.3,1.3,5.2,0.7,6.7-1.5l20.4-29c0.4,0.1,0.8,0.2,1.1,0.3l3.1,35.3
				c0.2,2.6,2.4,4.6,5,4.6h14.5h14.5c2.6,0,4.8-2,5-4.6l3.1-35.3c0.4-0.1,0.8-0.2,1.1-0.3l20.4,29c1.5,2.2,4.4,2.8,6.7,1.5l12.6-7.2
				l12.6-7.2c2.3-1.3,3.2-4.1,2.1-6.5l-15-32.2c0.3-0.3,0.6-0.6,0.8-0.8l32.2,15c2.4,1.1,5.2,0.2,6.5-2.1l7.2-12.6l7.2-12.6
				c1.3-2.3,0.7-5.2-1.5-6.7l-29-20.4c0.1-0.4,0.2-0.8,0.3-1.1l35.3-3.1c2.6-0.2,4.6-2.4,4.6-5v-14.5v-14.5
				C1318.3,918.3,1316.3,916.1,1313.7,915.9z M1191.5,1002.5c-37,0-67-30-67-67s30-67,67-67s67,30,67,67
				S1228.6,1002.5,1191.5,1002.5z"/>
		</g>
		<g>
			<path class="st2" d="M1568.3,574.6l-53.4-4.7c-0.2-0.6-0.3-1.2-0.5-1.7l43.9-30.8c3.2-2.3,4.2-6.7,2.2-10.1l-10.9-19l-10.9-19
				c-2-3.4-6.3-4.8-9.9-3.1l-48.6,22.6c-0.4-0.4-0.8-0.8-1.3-1.3l22.6-48.6c1.7-3.6,0.3-7.9-3.1-9.9l-19-10.9l-19-10.9
				c-3.4-2-7.8-1-10.1,2.2l-30.8,43.9c-0.6-0.2-1.1-0.3-1.7-0.5l-4.7-53.4c-0.3-4-3.7-7-7.6-7h-21.9h-21.9c-4,0-7.3,3-7.6,7
				l-4.7,53.4c-0.6,0.2-1.2,0.3-1.7,0.5l-30.8-43.9c-2.3-3.2-6.7-4.2-10.1-2.2l-19,10.9l-19,10.9c-3.4,2-4.8,6.3-3.1,9.9l22.6,48.6
				c-0.4,0.4-0.8,0.8-1.3,1.3l-48.6-22.6c-3.6-1.7-7.9-0.3-9.9,3.1l-10.9,19l-10.9,19c-2,3.4-1,7.8,2.2,10.1l43.9,30.8
				c-0.2,0.6-0.3,1.1-0.5,1.7l-53.4,4.7c-4,0.3-7,3.7-7,7.6v21.9V626c0,4,3,7.3,7,7.6l53.4,4.7c0.2,0.6,0.3,1.2,0.5,1.7l-43.9,30.8
				c-3.2,2.3-4.2,6.7-2.2,10.1l10.9,19l10.9,19c2,3.4,6.3,4.8,9.9,3.1l48.6-22.6c0.4,0.4,0.8,0.8,1.3,1.3l-22.6,48.6
				c-1.7,3.6-0.3,7.9,3.1,9.9l19,10.9l19,10.9c3.4,2,7.8,1,10.1-2.2l30.8-43.9c0.6,0.2,1.1,0.3,1.7,0.5l4.7,53.4c0.3,4,3.7,7,7.6,7
				h21.9h21.9c4,0,7.3-3,7.6-7l4.7-53.4c0.6-0.2,1.2-0.3,1.7-0.5l30.8,43.9c2.3,3.2,6.7,4.2,10.1,2.2l19-10.9l19-10.9
				c3.4-2,4.8-6.3,3.1-9.9l-22.6-48.6c0.4-0.4,0.8-0.8,1.3-1.3l48.6,22.6c3.6,1.7,7.9,0.3,9.9-3.1l10.9-19l10.9-19
				c2-3.4,1-7.8-2.2-10.1l-43.9-30.8c0.2-0.6,0.3-1.1,0.5-1.7l53.4-4.7c4-0.3,7-3.7,7-7.6v-21.9v-21.9
				C1575.3,578.2,1572.3,574.9,1568.3,574.6z M1383.8,705.4c-55.9,0-101.3-45.3-101.3-101.3s45.3-101.3,101.3-101.3
				c55.9,0,101.3,45.3,101.3,101.3S1439.8,705.4,1383.8,705.4z"/>
			<circle class="st2" cx="1383.8" cy="604.1" r="77.1"/>
		</g>
		<g>
			<path class="st2" d="M1196.3,358.2l-41.7-4.1c-2.3-10.3-6.3-19.9-11.8-28.5l26.6-32.4c1-1.2,0.9-3-0.2-4.1l-8.7-8.7l-8.7-8.7
				c-1.1-1.1-2.9-1.2-4.1-0.2l-32.4,26.6c-8.6-5.5-18.2-9.5-28.5-11.8l-4.1-41.7c-0.2-1.6-1.5-2.8-3-2.8h-12.3h-12.3
				c-1.6,0-2.9,1.2-3,2.8l-4.1,41.7c-10.3,2.3-19.9,6.3-28.5,11.8l-32.4-26.6c-1.2-1-3-0.9-4.1,0.2l-8.7,8.7l-8.7,8.7
				c-1.1,1.1-1.2,2.9-0.2,4.1l26.6,32.4c-5.5,8.6-9.5,18.2-11.8,28.5l-41.7,4.1c-1.6,0.2-2.8,1.5-2.8,3v12.3v12.3
				c0,1.6,1.2,2.9,2.8,3l41.7,4.1c2.3,10.3,6.3,19.9,11.8,28.5l-26.6,32.4c-1,1.2-0.9,3,0.2,4.1l8.7,8.7l8.7,8.7
				c1.1,1.1,2.9,1.2,4.1,0.2l32.4-26.6c8.6,5.5,18.2,9.5,28.5,11.8l4.1,41.7c0.2,1.6,1.5,2.8,3,2.8h12.3h12.3c1.6,0,2.9-1.2,3-2.8
				l4.1-41.7c10.3-2.3,19.9-6.3,28.5-11.8l32.4,26.6c1.2,1,3,0.9,4.1-0.2l8.7-8.7l8.7-8.7c1.1-1.1,1.2-2.9,0.2-4.1l-26.6-32.4
				c5.5-8.6,9.5-18.2,11.8-28.5l41.7-4.1c1.6-0.2,2.8-1.5,2.8-3v-12.3v-12.3C1199.1,359.7,1197.9,358.4,1196.3,358.2z M1067.5,442.7
				c-38.2,0-69.2-31-69.2-69.2c0-38.2,31-69.2,69.2-69.2c38.2,0,69.2,31,69.2,69.2C1136.7,411.7,1105.7,442.7,1067.5,442.7z"/>
			<path class="st2" d="M1067.5,316.2c-31.7,0-57.3,25.7-57.3,57.3c0,31.7,25.7,57.3,57.3,57.3c31.7,0,57.3-25.7,57.3-57.3
				C1124.8,341.9,1099.2,316.2,1067.5,316.2z M1067.5,421.8c-26.7,0-48.3-21.6-48.3-48.3s21.6-48.3,48.3-48.3
				c26.7,0,48.3,21.6,48.3,48.3S1094.2,421.8,1067.5,421.8z"/>
		</g>
		<g>
			<path class="st2" d="M1910.1,664.9l-44.2-4.3c-2.4-10.9-6.7-21.1-12.5-30.2l28.2-34.3c1.1-1.3,1-3.2-0.2-4.3l-9.2-9.2l-9.2-9.2
				c-1.2-1.2-3.1-1.3-4.3-0.2l-34.3,28.2c-9.1-5.8-19.3-10.1-30.2-12.5l-4.3-44.2c-0.2-1.7-1.6-2.9-3.2-2.9h-13h-13
				c-1.7,0-3.1,1.3-3.2,2.9l-4.3,44.2c-10.9,2.4-21.1,6.7-30.2,12.5l-34.3-28.2c-1.3-1.1-3.2-1-4.3,0.2l-9.2,9.2l-9.2,9.2
				c-1.2,1.2-1.3,3.1-0.2,4.3l28.2,34.3c-5.8,9.1-10.1,19.3-12.5,30.2l-44.2,4.3c-1.7,0.2-2.9,1.6-2.9,3.2v13v13
				c0,1.7,1.3,3.1,2.9,3.2l44.2,4.3c2.4,10.9,6.7,21.1,12.5,30.2l-28.2,34.3c-1.1,1.3-1,3.2,0.2,4.3l9.2,9.2l9.2,9.2
				c1.2,1.2,3.1,1.3,4.3,0.2l34.3-28.2c9.1,5.8,19.3,10.1,30.2,12.5l4.3,44.2c0.2,1.7,1.6,2.9,3.2,2.9h13h13c1.7,0,3.1-1.3,3.2-2.9
				l4.3-44.2c10.9-2.4,21.1-6.7,30.2-12.5l34.3,28.2c1.3,1.1,3.2,1,4.3-0.2l9.2-9.2l9.2-9.2c1.2-1.2,1.3-3.1,0.2-4.3l-28.2-34.3
				c5.8-9.1,10.1-19.3,12.5-30.2l44.2-4.3c1.7-0.2,2.9-1.6,2.9-3.2v-13v-13C1913,666.5,1911.8,665.1,1910.1,664.9z M1773.8,754.4
				c-40.5,0-73.3-32.8-73.3-73.3c0-40.5,32.8-73.3,73.3-73.3c40.5,0,73.3,32.8,73.3,73.3C1847,721.6,1814.2,754.4,1773.8,754.4z"/>
			<path class="st2" d="M1773.8,620.5c-33.5,0-60.7,27.2-60.7,60.7c0,33.5,27.2,60.7,60.7,60.7c33.5,0,60.7-27.2,60.7-60.7
				C1834.4,647.6,1807.3,620.5,1773.8,620.5z M1773.8,732.2c-28.2,0-51.1-22.9-51.1-51.1c0-28.2,22.9-51.1,51.1-51.1
				c28.2,0,51.1,22.9,51.1,51.1C1824.9,709.4,1802,732.2,1773.8,732.2z"/>
		</g>
		<path class="st2" d="M1713.5,423.8l-19.2-1.9c-1.1-4.7-2.9-9.2-5.4-13.1l12.3-14.9c0.5-0.6,0.4-1.4-0.1-1.9l-4-4l-4-4
			c-0.5-0.5-1.3-0.6-1.9-0.1l-14.9,12.3c-4-2.5-8.4-4.4-13.1-5.4l-1.9-19.2c-0.1-0.7-0.7-1.3-1.4-1.3h-5.7h-5.7
			c-0.7,0-1.3,0.5-1.4,1.3l-1.9,19.2c-4.7,1.1-9.2,2.9-13.1,5.4l-14.9-12.3c-0.6-0.5-1.4-0.4-1.9,0.1l-4,4l-4,4
			c-0.5,0.5-0.6,1.3-0.1,1.9l12.3,14.9c-2.5,4-4.4,8.4-5.4,13.1l-19.2,1.9c-0.7,0.1-1.3,0.7-1.3,1.4v5.7v5.7c0,0.7,0.5,1.3,1.3,1.4
			l19.2,1.9c1.1,4.7,2.9,9.2,5.4,13.1l-12.3,14.9c-0.5,0.6-0.4,1.4,0.1,1.9l4,4l4,4c0.5,0.5,1.3,0.6,1.9,0.1l14.9-12.3
			c4,2.5,8.4,4.4,13.1,5.4l1.9,19.2c0.1,0.7,0.7,1.3,1.4,1.3h5.7h5.7c0.7,0,1.3-0.5,1.4-1.3l1.9-19.2c4.7-1.1,9.2-2.9,13.1-5.4
			l14.9,12.3c0.6,0.5,1.4,0.4,1.9-0.1l4-4l4-4c0.5-0.5,0.6-1.3,0.1-1.9l-12.3-14.9c2.5-4,4.4-8.4,5.4-13.1l19.2-1.9
			c0.7-0.1,1.3-0.7,1.3-1.4v-5.7v-5.7C1714.8,424.5,1714.2,423.9,1713.5,423.8z M1654.1,448.4c-9.7,0-17.6-7.9-17.6-17.6
			c0-9.7,7.9-17.6,17.6-17.6c9.7,0,17.6,7.9,17.6,17.6C1671.7,440.5,1663.8,448.4,1654.1,448.4z"/>
		<path class="st2" d="M908.1,512.1l-19.2-1.9c-1.1-4.7-2.9-9.2-5.4-13.1l12.3-14.9c0.5-0.6,0.4-1.4-0.1-1.9l-4-4l-4-4
			c-0.5-0.5-1.3-0.6-1.9-0.1l-14.9,12.3c-4-2.5-8.4-4.4-13.1-5.4l-1.9-19.2c-0.1-0.7-0.7-1.3-1.4-1.3h-5.7h-5.7
			c-0.7,0-1.3,0.5-1.4,1.3l-1.9,19.2c-4.7,1.1-9.2,2.9-13.1,5.4l-14.9-12.3c-0.6-0.5-1.4-0.4-1.9,0.1l-4,4l-4,4
			c-0.5,0.5-0.6,1.3-0.1,1.9L814,497c-2.5,4-4.4,8.4-5.4,13.1l-19.2,1.9c-0.7,0.1-1.3,0.7-1.3,1.4v5.7v5.7c0,0.7,0.5,1.3,1.3,1.4
			l19.2,1.9c1.1,4.7,2.9,9.2,5.4,13.1l-12.3,14.9c-0.5,0.6-0.4,1.4,0.1,1.9l4,4l4,4c0.5,0.5,1.3,0.6,1.9,0.1l14.9-12.3
			c4,2.5,8.4,4.4,13.1,5.4l1.9,19.2c0.1,0.7,0.7,1.3,1.4,1.3h5.7h5.7c0.7,0,1.3-0.5,1.4-1.3l1.9-19.2c4.7-1.1,9.2-2.9,13.1-5.4
			l14.9,12.3c0.6,0.5,1.4,0.4,1.9-0.1l4-4l4-4c0.5-0.5,0.6-1.3,0.1-1.9l-12.3-14.9c2.5-4,4.4-8.4,5.4-13.1l19.2-1.9
			c0.7-0.1,1.3-0.7,1.3-1.4v-5.7v-5.7C909.4,512.7,908.9,512.1,908.1,512.1z M848.7,536.7c-9.7,0-17.6-7.9-17.6-17.6
			c0-9.7,7.9-17.6,17.6-17.6c9.7,0,17.6,7.9,17.6,17.6C866.3,528.8,858.4,536.7,848.7,536.7z"/>
	</g>
	<g>
		<g>
			<g>
				<path class="st3" d="M794.8,1625c0,39.8,32.3,72.1,72.1,72.1h36.5c39.8,0,72.1-32.3,72.1-72.1v-60.8H794.8V1625z"/>
				<path class="st4" d="M956.8,1613.2c0,39.8-32.3,72.1-72.1,72.1h-36.5c-10.2,0-19.9-2.1-28.7-6c12.7,11.1,29.3,17.8,47.4,17.8
					h36.5c39.8,0,72.1-32.3,72.1-72.1v-60.8h-18.7V1613.2z"/>
				<path class="st3" d="M718.8,1711.5h332.7c10.6,0,19.2-8.6,19.2-19.2H699.5C699.5,1702.8,708.2,1711.5,718.8,1711.5z"/>
				<path class="st4" d="M1051.5,1701.8H718.8c-7.1,0-13.3-3.9-16.6-9.6h-2.6c0,10.6,8.6,19.2,19.2,19.2h332.7
					c10.6,0,19.2-8.6,19.2-19.2h-2.6C1064.8,1698,1058.6,1701.8,1051.5,1701.8z"/>
				<path class="st3" d="M776.2,1586.9h18.6c6.3,0,11.4-5.1,11.4-11.4s-5.1-11.4-11.4-11.4h-18.6c-13.4,0-24.4,10.9-24.4,24.4v13.2
					c0,22.3,18.2,40.5,40.5,40.5h2.5c6.3,0,11.4-5.1,11.4-11.4c0-6.3-5.1-11.4-11.4-11.4h-2.5c-9.8,0-17.8-8-17.8-17.8v-13.2
					C774.5,1587.7,775.3,1586.9,776.2,1586.9z"/>
			</g>
			<g>
				<g>
					<path class="st5" d="M2407.4,1711.5H521.5c-21.2,0-38.4,19.5-38.4,43.5c0,24,17.2,43.5,38.4,43.5h1885.9
						c21.2,0,38.4-19.5,38.4-43.5C2445.9,1730.9,2428.7,1711.5,2407.4,1711.5z"/>
					<rect x="545" y="1798.4" class="st6" width="1838.9" height="201.8"/>
					<rect x="545" y="1798.4" class="st7" width="1838.9" height="29"/>
				</g>
				<path class="st8" d="M2407.4,1711.5H521.5c-21.2,0-38.4,19.5-38.4,43.5c0,6.5,1.3,12.6,3.5,18.2c0-0.1,0-0.2,0-0.3l0,0
					c0-24,17.2-43.5,38.4-43.5h1885.9c15.5,0,28.8,10.4,34.9,25.3C2445.7,1730.8,2428.6,1711.5,2407.4,1711.5z"/>
			</g>
			<g>
				<rect x="1414.3" y="1162.6" class="st9" width="91.9" height="125.1"/>
				<path class="st10" d="M1636.5,1058.6c0,0-9.9-19.3-13.9,7.5c-4,26.8,30.4,43.2,30.4,43.2
					C1629.6,1083,1636.5,1058.6,1636.5,1058.6z"/>
				<path class="st11" d="M1607.8,1096.4L1607.8,1096.4c-14,19.9-29.3,37.8-45.1,53.3l0,0c0,0,31.9,19.4-10.6,159.4
					c-42.5,140,97.9,235.6,97.9,235.6c-43-119.2-22.2-123.3,40.2-248.1C1752.6,1171.8,1607.8,1096.4,1607.8,1096.4z"/>
				<path class="st10" d="M1607.8,1096.4L1607.8,1096.4c-14,19.9-29.3,37.8-45.1,53.3l0,0c0,0,31.9,19.4-10.6,159.4
					c-6.2,20.6-8.5,40.2-7.9,58.7v0c16.2-99.7,41.1-109.1,88.2-159.1c26-27.6,19-63.8,7.4-90.6
					C1622.2,1103.9,1607.8,1096.4,1607.8,1096.4z"/>
				<path class="st12" d="M1462.8,789c-97.4,0-186.7,63.5-186.7,177.7c0,60.2,29.1,119.7,68.6,163.9c61.5,68.8,174.7,68.8,236.2,0
					c39.5-44.2,68.6-103.8,68.6-163.9C1649.6,852.5,1560.2,789,1462.8,789z"/>
				<circle class="st12" cx="1642.6" cy="1012" r="46.6"/>
				<circle class="st12" cx="1283.1" cy="1012" r="46.6"/>
				<path class="st11" d="M1603.8,800.1c-0.1-0.1-0.2-0.2-0.3-0.3c-31.3-33.2-71.5-54.5-115.1-61.3c-0.3-0.1-0.7-0.1-1-0.1
					c-3-0.5-6.1-0.9-9.2-1.2c-1.2-0.1-2.4-0.2-3.7-0.3c-2.2-0.2-4.4-0.4-6.6-0.5c-3.4-0.2-6.9-0.3-10.4-0.3c-2.9,0-5.8,0.1-8.6,0.2
					c-1,0-2.1,0.1-3.1,0.1c-2.2,0.1-4.3,0.3-6.5,0.5c-1.8,0.2-3.7,0.4-5.5,0.6c0,0-0.1,0-0.1,0c0,0,0,0,0,0
					c-101.1,12.2-185.4,101.6-187.9,237c-9.5,94.7,47.1,207.7,47.1,207.7c-33.7-82.4-3.8-189.9-3.8-189.9
					c8.8-16.9,24.2-29.5,42.6-34.7c30.1-8.6,61.7-20.1,93.6-34.6c33.4-15.2,64.2-32.2,91.5-50.1c50.9,58.1,108.2,95.5,152.4,101.9
					C1668.1,901.4,1642.8,841.6,1603.8,800.1C1603.8,800.1,1603.8,800.1,1603.8,800.1z"/>
				<path class="st11" d="M1696.3,1222.3l-17.4-0.1c0,0-7.5,20.6,15.1,60.4c22.6,39.8,53.2,28.3,53.2,28.3
					C1709.2,1301.8,1696.3,1222.3,1696.3,1222.3z"/>
				<g>
					<path class="st13" d="M1642.4,952.2c-10.9-2.4-45.7-9.1-83.9-4.3c-46.2,5.8-77.6,13.7-95.7,11.9c-18.1,1.8-49.5-6.1-95.7-11.9
						c-38.2-4.8-73,1.9-83.9,4.3c-2.1,0.5-3.5,2.3-3.5,4.4v15c0,1.8,1,3.4,2.7,4.1c13.6,5.9,14.8,38.7,18.4,62.4
						c3.8,25.2,35.1,30,67.6,30.1c21.2,0.1,37.5-3.2,49.3-8.7c24.1-11.1,28.2-69.2,30.5-74.4s14.6-4.1,14.6-4.1s12.3-1.2,14.6,4.1
						c2.3,5.3,6.4,63.3,30.5,74.4c11.8,5.4,28.2,8.8,49.3,8.7c32.5-0.2,63.8-5,67.6-30.1c3.6-23.7,4.8-56.5,18.4-62.4
						c1.6-0.7,2.7-2.4,2.7-4.1v-15C1646,954.5,1644.5,952.7,1642.4,952.2z"/>
					<path class="st12" d="M1407.5,963.2c-26.8-4.5-50.6-6.3-57.1-6.7c-0.8-0.1-1.6-0.1-2.4-0.2c-5.6-0.4-41.3-1.7-40.5,37.7
						c0.9,42.7,4.1,59.1,32.2,63.2c28.1,4.1,48.3,3.2,62.9-3.8c14.6-7,22.2-12.9,29.5-43.3C1439.4,979.7,1436.3,968.1,1407.5,963.2z
						"/>
					<path class="st12" d="M1577.7,956.4c-0.8,0.1-1.6,0.1-2.4,0.2c-6.5,0.4-30.3,2.1-57.1,6.7c-28.7,4.9-31.9,16.5-24.6,46.9
						c7.3,30.4,14.9,36.3,29.5,43.3c14.6,7,34.8,7.9,62.9,3.8c28.1-4.1,31.3-20.5,32.2-63.2C1619,954.6,1583.3,955.9,1577.7,956.4z"
						/>
				</g>
				<path class="st14" d="M1502,1224.1c-18.4,37.4-72.9,34.3-86.6-5.1c-0.4-1.3-0.7-2.1-0.7-2.4l-169.8,52V1696h215.3h220.5v-425.8
					l-175-53.6L1502,1224.1z"/>
				<path class="st12" d="M1286.1,1547.8h-186.6c-1.3,0-3.8,0-5.3-3.4c-0.9-2.1-0.7-3.6-0.2-4.6l199.6-174.1
					c23.3-20.3,25.7-55.7,5.4-79c-20.3-23.3-55.7-25.7-79-5.4l-203.6,177.5c-1.8,1.6-3.5,3.3-5.1,5c-31.2,35.2-38.6,83.6-19.3,126.5
					c19.3,42.9,60.5,69.5,107.5,69.5h186.6c30.9,0,56-25.1,56-56C1342.1,1572.8,1317.1,1547.8,1286.1,1547.8z"/>
				<path class="st14" d="M1220,1281.2l-149.7,130.6c12.2,28.8,35.8,62.3,81.5,77.5l141.8-123.6c23.3-20.3,25.7-55.7,5.4-79
					C1278.7,1263.3,1243.3,1260.9,1220,1281.2z"/>
				<path class="st12" d="M1909.2,1458.7l-203.6-177.5c-23.3-20.3-58.7-17.9-79,5.4c-20.3,23.3-17.9,58.7,5.4,79l199.6,174.1
					c0.5,1.1,0.7,2.6-0.2,4.6c-1.5,3.4-4,3.4-5.3,3.4h-186.6c-30.9,0-56,25.1-56,56c0,30.9,25.1,56,56,56h186.6
					c47,0,88.2-26.6,107.5-69.5c19.3-42.9,11.9-91.3-19.3-126.5C1912.7,1462,1911,1460.3,1909.2,1458.7z"/>
				<path class="st14" d="M1626.7,1286.6c-20.3,23.3-17.9,58.7,5.4,79l141.8,123.6c45.7-15.2,69.4-48.7,81.5-77.5l-149.7-130.6
					C1682.4,1260.9,1647,1263.3,1626.7,1286.6z"/>
				<g>
					<path class="st3" d="M1795.1,1270.5h-661.3c-12.8,0-23.3,10.4-23.3,23.3v417.7h707.8v-417.7
						C1818.4,1280.9,1808,1270.5,1795.1,1270.5z"/>
					<polygon class="st4" points="1110.6,1607.2 1110.6,1711.5 1818.4,1711.5 1818.4,1362.5 					"/>
					<circle class="st15" cx="1464.5" cy="1491" r="34.6"/>
					<path class="st16" d="M1493.6,1475.9c0,19.1-15.5,34.6-34.6,34.6c-12,0-22.6-6.1-28.8-15.4c2,17.2,16.7,30.5,34.4,30.5
						c19.1,0,34.6-15.5,34.6-34.6c0-7.1-2.1-13.7-5.8-19.2C1493.5,1473.1,1493.6,1474.5,1493.6,1475.9z"/>
				</g>
				<path class="st17" d="M1371.5,1021.5c-11.5,0-21.2-7.7-24.2-18.3c-0.6,2.2-1,4.5-1,6.9c0,13.9,11.3,25.2,25.2,25.2
					s25.2-11.3,25.2-25.2c0-2.4-0.3-4.7-1-6.9C1392.7,1013.7,1383,1021.5,1371.5,1021.5z"/>
				<path class="st17" d="M1554.2,1021.5c-11.5,0-21.2-7.7-24.2-18.3c-0.6,2.2-1,4.5-1,6.9c0,13.9,11.3,25.2,25.2,25.2
					c13.9,0,25.2-11.3,25.2-25.2c0-2.4-0.3-4.7-1-6.9C1575.5,1013.7,1565.7,1021.5,1554.2,1021.5z"/>
				<ellipse class="st17" cx="1462.8" cy="1122.1" rx="15.1" ry="22.6"/>
				<path class="st3" d="M1462.8,1099.5c-6.6,0-12.2,6.4-14.2,15.2h28.5C1475,1105.8,1469.4,1099.5,1462.8,1099.5z"/>
			</g>
			<g>
				<g>
					
						<rect x="1927.4" y="1436.2" transform="matrix(0.2887 -0.9574 0.9574 0.2887 162.5155 3121.5977)" class="st18" width="509.3" height="30.4"/>
					
						<rect x="2123.2" y="888.6" transform="matrix(0.7643 -0.6449 0.6449 0.7643 -187.8347 1631.9121)" class="st18" width="30.4" height="368.5"/>
					<circle class="st19" cx="2252.1" cy="1209.9" r="25.6"/>
					<path class="st20" d="M2230.1,1239.6c4.7,5.1,11.4,8.3,18.8,8.3c4,0,7.8-1,11.2-2.6l10-33.2l-29.1-8.8L2230.1,1239.6z"/>
					<path class="st21" d="M1929.6,817.4c-1.3-1.6-3.8-1.8-5.4-0.5l-1.1,0.9c-1.6,1.3-1.8,3.8-0.5,5.4l104.2,125.3
						c1.3,1.6,3.8,1.8,5.4,0.5l1.1-0.9c1.6-1.3,1.8-3.8,0.5-5.4L1929.6,817.4z"/>
					<path class="st22" d="M1924.2,825.1l-143,75.2c-5.8,3.1-7.4,10.8-3.2,15.8l65.4,78.7l65.4,78.7c4.2,5.1,12.1,5,16.1-0.2
						l100.1-126.8l-50.5-60.7L1924.2,825.1z"/>
					<g>
						<path class="st20" d="M2028.9,919.7l-15.3,12.9l29.1,35c1.6,1.9,4.5,2.2,6.4,0.6c1.9-1.6,2.2-4.5,0.6-6.4l-2.3-2.8l8.6-7.1
							L2028.9,919.7z"/>
						<polygon class="st20" points="2005.7,939.3 2035.2,974.3 2041.6,966.2 2013.7,932.6 						"/>
					</g>
					<polygon class="st20" points="2096.8,1681.5 2096.8,1682.8 2128.2,1682.8 2141.5,1638.8 2109.7,1638.8 					"/>
					<g>
						<path class="st18" d="M2116.6,1654.1c-61.4,0-115.4,22.8-146.4,57.3H2263C2232,1677,2178,1654.1,2116.6,1654.1z"/>
					</g>
					<g>
						<path class="st23" d="M2033.8,1669.1c17.8,10.9,48.2,18.1,82.7,18.1s64.9-7.2,82.7-18.1c-24.6-9.6-52.8-15-82.7-15
							C2086.6,1654.1,2058.4,1659.6,2033.8,1669.1z"/>
					</g>
					<circle class="st19" cx="2252.1" cy="1209.9" r="25.6"/>
					<path class="st18" d="M1988.7,822.2c-13.1-15.8-36.5-17.9-52.3-4.8l-4,3.3l98.6,118.6l4-3.3c15.8-13.1,17.9-36.5,4.8-52.3
						L1988.7,822.2z"/>
					<path class="st22" d="M1936.4,817.4l-4,3.3l23.6,28.4l4-3.3c10.5-8.8,15-22.1,12.9-34.7
						C1960.8,806.7,1946.9,808.6,1936.4,817.4z"/>
					<path class="st22" d="M1924.2,825.1l-143,75.2c-5.8,3.1-7.4,10.8-3.2,15.8l65.4,78.7l65.4,78.7c4.2,5.1,12.1,5,16.1-0.2
						l100.1-126.8l-50.5-60.7L1924.2,825.1z"/>
					<path class="st21" d="M1937.9,827.5c-1.3-1.6-3.8-1.8-5.4-0.5l-1.1,0.9c-1.6,1.3-1.8,3.8-0.5,5.4l104.2,125.3
						c1.3,1.6,3.8,1.8,5.4,0.5l1.1-0.9c1.6-1.3,1.8-3.8,0.5-5.4L1937.9,827.5z"/>
					<path class="st24" d="M1776.3,912.8c0.4,1.2,1,2.3,1.8,3.3l65.4,78.7l65.4,78.7c4.2,5.1,12.1,5,16.1-0.2l100-126.7l-77.9-93.7
						L1776.3,912.8z"/>
				</g>
			</g>
			<g>
				<path class="st25" d="M2010.5,1579.7h-67.2h-64.2c-5.5,0-9.6,4.9-8.6,10.3l22,121.4h50.8h50.8l22.5-124.4
					C2017.2,1583.2,2014.3,1579.7,2010.5,1579.7z"/>
				<path class="st26" d="M1876,1579.7c-3.9,0-6.8,3.5-6.1,7.3l20.9,115.6h40h39c6.8,0,12.7-4.9,13.9-11.6l20.1-111.2h-60.6H1876z"
					/>
				<path class="st27" d="M1943.5,1375.6c-13.5,10.6-22.2,27-22.2,45.5s8.7,34.9,22.2,45.5c13.5-10.6,22.2-27,22.2-45.5
					S1957,1386.1,1943.5,1375.6z"/>
				<path class="st28" d="M1943.5,1458c-12.5-9.7-20.8-24.5-22-41.2c-0.1,1.4-0.2,2.8-0.2,4.2c0,18.5,8.7,34.9,22.2,45.5
					c13.5-10.6,22.2-27,22.2-45.5c0-1.4-0.1-2.8-0.2-4.2C1964.3,1433.5,1955.9,1448.3,1943.5,1458z"/>
				<path class="st27" d="M1965.7,1470c-12.5,8.9-19.5,22.6-20.2,36.8c13.6,4.1,28.9,2.1,41.4-6.8c12.5-8.9,19.5-22.6,20.2-36.8
					C1993.5,1459.2,1978.2,1461.2,1965.7,1470z"/>
				<path class="st28" d="M1987.3,1493.5c-11.9,10.6-27.2,14.8-41.8,13.1c0,0.1,0,0.1,0,0.2c13.6,4.1,28.9,2.1,41.4-6.8
					c12.5-8.9,19.5-22.6,20.2-36.8c-0.8-0.2-1.6-0.5-2.5-0.7C2002.6,1474.1,1996.8,1485.1,1987.3,1493.5z"/>
				<path class="st27" d="M1971.6,1527.5c-14.2,5.7-24.2,17.5-28.1,31.2c12.3,7.1,27.7,8.7,41.9,3c14.2-5.7,24.2-17.5,28.1-31.2
					C2001.1,1523.4,1985.8,1521.8,1971.6,1527.5z"/>
				<path class="st28" d="M1987.3,1555.4c-14,7.5-29.9,8.2-43.7,3.1c0,0.1,0,0.1-0.1,0.2c12.3,7.1,27.7,8.7,41.9,3
					c14.2-5.7,24.2-17.5,28.1-31.2c-0.7-0.4-1.5-0.8-2.3-1.2C2006.6,1540.1,1998.4,1549.4,1987.3,1555.4z"/>
				<path class="st27" d="M1920.8,1470c-12.5-8.9-27.8-10.8-41.4-6.8c0.7,14.2,7.6,28,20.2,36.8c12.5,8.9,27.8,10.8,41.4,6.8
					C1940.3,1492.6,1933.3,1478.9,1920.8,1470z"/>
				<path class="st28" d="M1899.1,1493.5c-9.5-8.4-15.2-19.4-17.3-30.9c-0.8,0.2-1.7,0.4-2.5,0.7c0.7,14.2,7.6,28,20.2,36.8
					c12.5,8.9,27.8,10.8,41.4,6.8c0-0.1,0-0.1,0-0.2C1926.3,1508.3,1911,1504.1,1899.1,1493.5z"/>
				<path class="st27" d="M1914.9,1527.5c-14.2-5.7-29.6-4.1-41.9,3c3.9,13.7,13.9,25.4,28.1,31.2c14.2,5.7,29.6,4.1,41.9-3
					C1939,1545,1929.1,1533.3,1914.9,1527.5z"/>
				<path class="st28" d="M1899.2,1555.4c-11.1-6-19.3-15.3-23.9-26.1c-0.8,0.4-1.5,0.8-2.3,1.2c3.9,13.7,13.9,25.4,28.1,31.2
					c14.2,5.7,29.6,4.1,41.9-3c0-0.1,0-0.1-0.1-0.2C1929.1,1563.6,1913.2,1562.9,1899.2,1555.4z"/>
				<rect x="1940.2" y="1459.2" class="st28" width="6.7" height="120.5"/>
			</g>
		</g>
		<g>
			<path class="st2" d="M2368.7,470.6h-373.2c-5.7,0-10.3,4.6-10.3,10.3v242.4c0,5.7,4.6,10.3,10.3,10.3h373.2
				c5.7,0,10.3-4.6,10.3-10.3V480.8C2378.9,475.2,2374.3,470.6,2368.7,470.6z"/>
			<path class="st29" d="M2358.3,514.9h-352.4c-4.2,0-7.6,3.4-7.6,7.6v190.4c0,4.2,3.4,7.6,7.6,7.6h352.4c4.2,0,7.6-3.4,7.6-7.6
				V522.5C2365.8,518.3,2362.5,514.9,2358.3,514.9z"/>
			<g>
				<circle class="st12" cx="2282.4" cy="495.4" r="7.7"/>
				<circle class="st27" cx="2310.7" cy="495.4" r="7.7"/>
				<circle class="st24" cx="2339" cy="495.4" r="7.7"/>
			</g>
			<g>
				<path class="st24" d="M2157.8,540.8h-125.5c-2.4,0-4.4,2-4.4,4.4c0,2.4,2,4.4,4.4,4.4h125.5c2.4,0,4.4-2,4.4-4.4
					C2162.2,542.8,2160.2,540.8,2157.8,540.8z"/>
				<path class="st27" d="M2332.5,540.8h-126.9c-2,0-3.7,1.6-3.7,3.7v1.4c0,2,1.6,3.7,3.7,3.7h126.9c2,0,3.7-1.6,3.7-3.7v-1.4
					C2336.2,542.5,2334.6,540.8,2332.5,540.8z"/>
				<path class="st24" d="M2157.8,569.8h-125.5c-2.4,0-4.4,2-4.4,4.4c0,2.4,2,4.4,4.4,4.4h125.5c2.4,0,4.4-2,4.4-4.4
					C2162.2,571.8,2160.2,569.8,2157.8,569.8z"/>
				<path class="st27" d="M2332.5,569.8h-126.9c-2,0-3.7,1.6-3.7,3.7v1.4c0,2,1.6,3.7,3.7,3.7h126.9c2,0,3.7-1.6,3.7-3.7v-1.4
					C2336.2,571.5,2334.6,569.8,2332.5,569.8z"/>
				<path class="st24" d="M2157.8,598.8h-125.5c-2.4,0-4.4,2-4.4,4.4c0,2.4,2,4.4,4.4,4.4h125.5c2.4,0,4.4-2,4.4-4.4
					C2162.2,600.8,2160.2,598.8,2157.8,598.8z"/>
				<path class="st27" d="M2332.5,598.8h-126.9c-2,0-3.7,1.6-3.7,3.7v1.4c0,2,1.6,3.7,3.7,3.7h126.9c2,0,3.7-1.6,3.7-3.7v-1.4
					C2336.2,600.5,2334.6,598.8,2332.5,598.8z"/>
				<path class="st12" d="M2157.8,627.8h-125.5c-2.4,0-4.4,2-4.4,4.4c0,2.4,2,4.4,4.4,4.4h125.5c2.4,0,4.4-2,4.4-4.4
					C2162.2,629.8,2160.2,627.8,2157.8,627.8z"/>
				<path class="st24" d="M2332.5,627.8h-126.9c-2,0-3.7,1.6-3.7,3.7v1.4c0,2,1.6,3.7,3.7,3.7h126.9c2,0,3.7-1.6,3.7-3.7v-1.4
					C2336.2,629.4,2334.6,627.8,2332.5,627.8z"/>
				<path class="st12" d="M2157.8,656.8h-125.5c-2.4,0-4.4,2-4.4,4.4c0,2.4,2,4.4,4.4,4.4h125.5c2.4,0,4.4-2,4.4-4.4
					C2162.2,658.8,2160.2,656.8,2157.8,656.8z"/>
				<path class="st24" d="M2332.5,656.8h-126.9c-2,0-3.7,1.6-3.7,3.7v1.4c0,2,1.6,3.7,3.7,3.7h126.9c2,0,3.7-1.6,3.7-3.7v-1.4
					C2336.2,658.4,2334.6,656.8,2332.5,656.8z"/>
				<path class="st12" d="M2157.8,685.8h-125.5c-2.4,0-4.4,2-4.4,4.4s2,4.4,4.4,4.4h125.5c2.4,0,4.4-2,4.4-4.4
					S2160.2,685.8,2157.8,685.8z"/>
				<path class="st24" d="M2332.5,685.8h-126.9c-2,0-3.7,1.6-3.7,3.7v1.4c0,2,1.6,3.7,3.7,3.7h126.9c2,0,3.7-1.6,3.7-3.7v-1.4
					C2336.2,687.4,2334.6,685.8,2332.5,685.8z"/>
			</g>
		</g>
		<g>
			<path class="st2" d="M974.7,677.3H601.6c-5.7,0-10.3,4.6-10.3,10.3V930c0,5.7,4.6,10.3,10.3,10.3h373.2c5.7,0,10.3-4.6,10.3-10.3
				V687.6C985,681.9,980.4,677.3,974.7,677.3z"/>
			<path class="st29" d="M964.3,721.7H611.9c-4.2,0-7.6,3.4-7.6,7.6v190.4c0,4.2,3.4,7.6,7.6,7.6h352.4c4.2,0,7.6-3.4,7.6-7.6V729.2
				C971.9,725.1,968.5,721.7,964.3,721.7z"/>
			<g>
				<circle class="st12" cx="888.5" cy="702.2" r="7.7"/>
				<circle class="st27" cx="916.8" cy="702.2" r="7.7"/>
				<circle class="st24" cx="945.1" cy="702.2" r="7.7"/>
			</g>
			<path class="st12" d="M763.9,834.6H638.4c-2.4,0-4.4,2-4.4,4.4c0,2.4,2,4.4,4.4,4.4h125.5c2.4,0,4.4-2,4.4-4.4
				C768.2,836.5,766.3,834.6,763.9,834.6z"/>
			<path class="st24" d="M938.6,834.6H811.7c-2,0-3.7,1.6-3.7,3.7v1.4c0,2,1.6,3.7,3.7,3.7h126.9c2,0,3.7-1.6,3.7-3.7v-1.4
				C942.3,836.2,940.6,834.6,938.6,834.6z"/>
			<path class="st12" d="M763.9,863.6H638.4c-2.4,0-4.4,2-4.4,4.4c0,2.4,2,4.4,4.4,4.4h125.5c2.4,0,4.4-2,4.4-4.4
				C768.2,865.5,766.3,863.6,763.9,863.6z"/>
			<path class="st24" d="M938.6,863.6H811.7c-2,0-3.7,1.6-3.7,3.7v1.4c0,2,1.6,3.7,3.7,3.7h126.9c2,0,3.7-1.6,3.7-3.7v-1.4
				C942.3,865.2,940.6,863.6,938.6,863.6z"/>
			<path class="st12" d="M763.9,892.6H638.4c-2.4,0-4.4,2-4.4,4.4c0,2.4,2,4.4,4.4,4.4h125.5c2.4,0,4.4-2,4.4-4.4
				C768.2,894.5,766.3,892.6,763.9,892.6z"/>
			<path class="st24" d="M938.6,892.6H811.7c-2,0-3.7,1.6-3.7,3.7v1.4c0,2,1.6,3.7,3.7,3.7h126.9c2,0,3.7-1.6,3.7-3.7v-1.4
				C942.3,894.2,940.6,892.6,938.6,892.6z"/>
			<rect x="636.8" y="743.8" class="st24" width="131.5" height="65"/>
			<rect x="808" y="743.8" class="st27" width="131.5" height="65"/>
		</g>
		<g>
			<path class="st2" d="M2429.4,974.3h-100.9c-3.2,0-5.8,2.6-5.8,5.8v194.6c0,3.2,2.6,5.8,5.8,5.8h100.9c3.2,0,5.8-2.6,5.8-5.8V980
				C2435.1,976.9,2432.6,974.3,2429.4,974.3z"/>
			<path class="st29" d="M2426.6,994.3h-95.3c-0.9,0-1.6,0.7-1.6,1.6v156.7c0,0.9,0.7,1.6,1.6,1.6h95.3c0.9,0,1.6-0.7,1.6-1.6V995.9
				C2428.2,995,2427.5,994.3,2426.6,994.3z"/>
			<path class="st30" d="M2389.8,984.1h-21.7c-1,0-1.7,0.7-1.7,1.6s0.8,1.6,1.7,1.6h21.7c1,0,1.7-0.7,1.7-1.6
				S2390.8,984.1,2389.8,984.1z"/>
			<circle class="st0" cx="2378.9" cy="1168.1" r="6.1"/>
			<path class="st27" d="M2426.3,994.3h-94.7c-1.1,0-1.9,0.9-1.9,1.9v18.9h98.6v-18.9C2428.2,995.2,2427.4,994.3,2426.3,994.3z"/>
			<rect x="2345.3" y="1030" class="st12" width="68.2" height="47.8"/>
			<rect x="2345.3" y="1089.1" class="st24" width="68.2" height="47.8"/>
		</g>
		<g>
			<path class="st2" d="M655.2,1113.6H554.3c-3.2,0-5.8,2.6-5.8,5.8v194.6c0,3.2,2.6,5.8,5.8,5.8h100.9c3.2,0,5.8-2.6,5.8-5.8
				v-194.6C661,1116.2,658.4,1113.6,655.2,1113.6z"/>
			<path class="st29" d="M652.4,1133.6h-95.3c-0.9,0-1.6,0.7-1.6,1.6v156.7c0,0.9,0.7,1.6,1.6,1.6h95.3c0.9,0,1.6-0.7,1.6-1.6
				v-156.7C654.1,1134.3,653.3,1133.6,652.4,1133.6z"/>
			<path class="st30" d="M615.6,1123.4h-21.7c-1,0-1.7,0.7-1.7,1.6s0.8,1.6,1.7,1.6h21.7c1,0,1.7-0.7,1.7-1.6
				S616.6,1123.4,615.6,1123.4z"/>
			<circle class="st0" cx="604.8" cy="1307.4" r="6.1"/>
			<path class="st27" d="M652.1,1133.6h-94.7c-1.1,0-1.9,0.7-1.9,1.5v14.9h98.6v-14.9C654.1,1134.3,653.2,1133.6,652.1,1133.6z"/>
			<rect x="563.7" y="1158.6" class="st24" width="36.9" height="36.9"/>
			<rect x="609" y="1158.6" class="st12" width="36.9" height="36.9"/>
			<rect x="563.7" y="1203.2" class="st31" width="36.9" height="36.9"/>
			<rect x="609" y="1203.2" class="st32" width="36.9" height="36.9"/>
			<rect x="563.7" y="1247.8" class="st12" width="36.9" height="36.9"/>
			<rect x="609" y="1247.8" class="st31" width="36.9" height="36.9"/>
		</g>
	</g>
	<g>
		<path class="st33" d="M1912.7,1329.3h-12c-4.4,0-8,3.6-8,8s3.6,8,8,8h12c4.4,0,8-3.6,8-8S1917.1,1329.3,1912.7,1329.3z"/>
		<path class="st33" d="M1977.3,1329.3h-21c-4.4,0-8,3.6-8,8s3.6,8,8,8h21c4.4,0,8-3.6,8-8S1981.7,1329.3,1977.3,1329.3z"/>
		<path class="st33" d="M2041.9,1329.3h-21c-4.4,0-8,3.6-8,8s3.6,8,8,8h21c4.4,0,8-3.6,8-8S2046.3,1329.3,2041.9,1329.3z"/>
		<path class="st33" d="M2106.5,1329.3h-21c-4.4,0-8,3.6-8,8s3.6,8,8,8h21c4.4,0,8-3.6,8-8S2110.9,1329.3,2106.5,1329.3z"/>
		<path class="st33" d="M2162.2,1317.3c-4.4,0-8,3.6-8,8v4h-4c-4.4,0-8,3.6-8,8s3.6,8,8,8h12c4.4,0,8-3.6,8-8v-12
			C2170.2,1320.9,2166.6,1317.3,2162.2,1317.3z"/>
		<path class="st33" d="M2162.2,1174.1c-4.4,0-8,3.6-8,8v23.2c0,4.4,3.6,8,8,8s8-3.6,8-8v-23.2
			C2170.2,1177.7,2166.6,1174.1,2162.2,1174.1z"/>
		<path class="st33" d="M2162.2,1245.7c-4.4,0-8,3.6-8,8v23.2c0,4.4,3.6,8,8,8s8-3.6,8-8v-23.2
			C2170.2,1249.3,2166.6,1245.7,2162.2,1245.7z"/>
		<path class="st33" d="M2162.2,1102.5c-4.4,0-8,3.6-8,8v23.2c0,4.4,3.6,8,8,8s8-3.6,8-8v-23.2
			C2170.2,1106.1,2166.6,1102.5,2162.2,1102.5z"/>
		<path class="st33" d="M2162.2,1030.9c-4.4,0-8,3.6-8,8v23.2c0,4.4,3.6,8,8,8s8-3.6,8-8v-23.2
			C2170.2,1034.5,2166.6,1030.9,2162.2,1030.9z"/>
		<path class="st33" d="M2162.2,959.3c-4.4,0-8,3.6-8,8v23.2c0,4.4,3.6,8,8,8s8-3.6,8-8v-23.2
			C2170.2,962.9,2166.6,959.3,2162.2,959.3z"/>
		<path class="st33" d="M2162.2,816.1c-4.4,0-8,3.6-8,8v23.2c0,4.4,3.6,8,8,8s8-3.6,8-8v-23.2
			C2170.2,819.7,2166.6,816.1,2162.2,816.1z"/>
		<path class="st33" d="M2162.2,887.7c-4.4,0-8,3.6-8,8v23.2c0,4.4,3.6,8,8,8s8-3.6,8-8v-23.2
			C2170.2,891.3,2166.6,887.7,2162.2,887.7z"/>
		<path class="st33" d="M2162.2,755.7c-4.4,0-8,3.6-8,8v12c0,4.4,3.6,8,8,8s8-3.6,8-8v-12C2170.2,759.3,2166.6,755.7,2162.2,755.7z"
			/>
	</g>
	<path class="st33" d="M2213.6,1433.6h-24c-4.4,0-8,3.6-8,8s3.6,8,8,8h24c4.4,0,8-3.6,8-8S2218,1433.6,2213.6,1433.6z"/>
	<path class="st33" d="M2139.6,1433.6h-24c-4.4,0-8,3.6-8,8s3.6,8,8,8h24c4.4,0,8-3.6,8-8S2144,1433.6,2139.6,1433.6z"/>
	<path class="st33" d="M2065.6,1433.6h-24c-4.4,0-8,3.6-8,8s3.6,8,8,8h24c4.4,0,8-3.6,8-8S2070,1433.6,2065.6,1433.6z"/>
	<path class="st33" d="M2361.6,1433.6h-24c-4.4,0-8,3.6-8,8s3.6,8,8,8h24c4.4,0,8-3.6,8-8S2366,1433.6,2361.6,1433.6z"/>
	<path class="st33" d="M2378.9,1377c-4.4,0-8,3.6-8,8v24c0,4.4,3.6,8,8,8s8-3.6,8-8v-24C2386.9,1380.6,2383.4,1377,2378.9,1377z"/>
	<path class="st33" d="M2287.6,1433.6h-24c-4.4,0-8,3.6-8,8s3.6,8,8,8h24c4.4,0,8-3.6,8-8S2292,1433.6,2287.6,1433.6z"/>
	<path class="st33" d="M2378.9,1303c-4.4,0-8,3.6-8,8v24c0,4.4,3.6,8,8,8s8-3.6,8-8v-24C2386.9,1306.6,2383.4,1303,2378.9,1303z"/>
	<path class="st33" d="M2378.9,1229c-4.4,0-8,3.6-8,8v24c0,4.4,3.6,8,8,8s8-3.6,8-8v-24C2386.9,1232.6,2383.4,1229,2378.9,1229z"/>
	<path class="st33" d="M685.4,1433.6h-24c-4.4,0-8,3.6-8,8s3.6,8,8,8h24c4.4,0,8-3.6,8-8S689.9,1433.6,685.4,1433.6z"/>
	<path class="st33" d="M611.4,1433.6h-2.9v-5.1c0-4.4-3.6-8-8-8s-8,3.6-8,8v13.1c0,4.4,3.6,8,8,8h10.9c4.4,0,8-3.6,8-8
		S615.9,1433.6,611.4,1433.6z"/>
	<path class="st33" d="M600.5,1386.5c4.4,0,8-3.6,8-8v-16.1c0-4.4-3.6-8-8-8s-8,3.6-8,8v16.1C592.5,1383,596.1,1386.5,600.5,1386.5z
		"/>
	<path class="st33" d="M981.4,1433.6h-24c-4.4,0-8,3.6-8,8s3.6,8,8,8h24c4.4,0,8-3.6,8-8S985.9,1433.6,981.4,1433.6z"/>
	<path class="st33" d="M907.4,1433.6h-24c-4.4,0-8,3.6-8,8s3.6,8,8,8h24c4.4,0,8-3.6,8-8S911.9,1433.6,907.4,1433.6z"/>
	<path class="st33" d="M833.4,1433.6h-24c-4.4,0-8,3.6-8,8s3.6,8,8,8h24c4.4,0,8-3.6,8-8S837.9,1433.6,833.4,1433.6z"/>
	<path class="st33" d="M759.4,1433.6h-24c-4.4,0-8,3.6-8,8s3.6,8,8,8h24c4.4,0,8-3.6,8-8S763.9,1433.6,759.4,1433.6z"/>
	<path class="st33" d="M791,1112.2c4.4,0,8-3.6,8-8v-24c0-4.4-3.6-8-8-8s-8,3.6-8,8v24C783,1108.6,786.6,1112.2,791,1112.2z"/>
	<path class="st33" d="M791,1186.2c4.4,0,8-3.6,8-8v-24c0-4.4-3.6-8-8-8s-8,3.6-8,8v24C783,1182.6,786.6,1186.2,791,1186.2z"/>
	<path class="st33" d="M791,1038.2c4.4,0,8-3.6,8-8v-24c0-4.4-3.6-8-8-8s-8,3.6-8,8v24C783,1034.6,786.6,1038.2,791,1038.2z"/>
	<path class="st33" d="M809.8,1299.4h-11.3c-1.1-3-4.1-5.2-7.5-5.2c-4.4,0-8,3.6-8,8v5.2c0,4.4,3.6,8,8,8h18.8c4.4,0,8-3.6,8-8
		S814.2,1299.4,809.8,1299.4z"/>
	<path class="st33" d="M1031.8,1299.4h-24c-4.4,0-8,3.6-8,8s3.6,8,8,8h24c4.4,0,8-3.6,8-8S1036.2,1299.4,1031.8,1299.4z"/>
	<path class="st33" d="M957.8,1299.4h-24c-4.4,0-8,3.6-8,8s3.6,8,8,8h24c4.4,0,8-3.6,8-8S962.2,1299.4,957.8,1299.4z"/>
	<path class="st33" d="M791,1260.2c4.4,0,8-3.6,8-8v-24c0-4.4-3.6-8-8-8s-8,3.6-8,8v24C783,1256.6,786.6,1260.2,791,1260.2z"/>
	<path class="st33" d="M883.8,1299.4h-24c-4.4,0-8,3.6-8,8s3.6,8,8,8h24c4.4,0,8-3.6,8-8S888.2,1299.4,883.8,1299.4z"/>
</g>
</svg>
